<svg width="34" height="34" viewBox="0 0 34 34" fill="none" xmlns="http://www.w3.org/2000/svg">
<path d="M17 34C26.3888 34 34 26.3888 34 17C34 7.61116 26.3888 0 17 0C7.61116 0 0 7.61116 0 17C0 26.3888 7.61116 34 17 34Z" fill="white"/>
<path d="M17 34C26.3888 34 34 26.3888 34 17C34 7.61116 26.3888 0 17 0C7.61116 0 0 7.61116 0 17C0 26.3888 7.61116 34 17 34Z" fill="white"/>
<path d="M12.6562 24.6688L21.3975 33.4101C28.6372 31.4795 34 24.8833 34 17C34 16.8391 34 16.6782 34 16.5173L27.1357 10.1893L12.6562 24.6688Z" fill="#9F9F9F"/>
<path d="M17.429 20.8075C18.1798 21.5583 18.1798 22.8454 17.429 23.5962L15.8738 25.1514C15.123 25.9022 13.836 25.9022 13.0852 25.1514L6.27446 18.287C5.52367 17.5362 5.52367 16.2492 6.27446 15.4984L7.82966 13.9432C8.58045 13.1924 9.86752 13.1924 10.6183 13.9432L17.429 20.8075Z" fill="black"/>
<path d="M23.3817 8.95582C24.1325 8.20503 25.4196 8.20503 26.1703 8.95582L27.7256 10.511C28.4763 11.2618 28.4763 12.5489 27.7256 13.2997L15.9274 25.0442C15.1767 25.7949 13.8896 25.7949 13.1388 25.0442L11.5836 23.4889C10.8328 22.7382 10.8328 21.4511 11.5836 20.7003L23.3817 8.95582Z" fill="black"/>
</svg>
