<svg width="34" height="34" viewBox="0 0 34 34" fill="none" xmlns="http://www.w3.org/2000/svg">
<g clip-path="url(#clip0)">
<path d="M17 0.708313C7.6075 0.708313 0 8.18831 0 17.4136C0 24.7959 4.8705 31.0561 11.6237 33.2633C12.4737 33.4206 12.7854 32.9035 12.7854 32.4601C12.7854 32.0634 12.7712 31.0122 12.7642 29.6196C8.03533 30.6269 7.038 27.3785 7.038 27.3785C6.2645 25.4504 5.14675 24.9347 5.14675 24.9347C3.60683 23.8991 5.26575 23.9204 5.26575 23.9204C6.97283 24.0366 7.86958 25.6416 7.86958 25.6416C9.38542 28.1959 11.849 27.4578 12.8208 27.0314C12.9738 25.9505 13.4116 25.2152 13.8975 24.7973C10.1221 24.3794 6.154 22.9429 6.154 16.5424C6.154 14.7191 6.81275 13.2288 7.90358 12.0601C7.71233 11.6379 7.13858 9.93931 8.05233 7.63865C8.05233 7.63865 9.47608 7.19098 12.7273 9.3514C14.0873 8.98023 15.5323 8.79606 16.9773 8.78756C18.4223 8.79606 19.8673 8.98023 21.2273 9.3514C24.4573 7.19098 25.8811 7.63865 25.8811 7.63865C26.7948 9.93931 26.2211 11.6379 26.0511 12.0601C27.1348 13.2288 27.7936 14.7191 27.7936 16.5424C27.7936 22.9599 23.8198 24.3723 20.0373 24.7831C20.6323 25.2846 21.1848 26.3089 21.1848 27.8743C21.1848 30.1098 21.1636 31.9061 21.1636 32.4487C21.1636 32.8865 21.4611 33.4092 22.3323 33.2421C29.1337 31.0491 34 24.7846 34 17.4136C34 8.18831 26.3882 0.708313 17 0.708313Z" fill="white"/>
</g>
<defs>
<clipPath id="clip0">
<rect width="34" height="34" fill="white"/>
</clipPath>
</defs>
</svg>
