<svg width="34" height="34" viewBox="0 0 34 34" fill="none" xmlns="http://www.w3.org/2000/svg">
<rect width="34" height="34" rx="17" fill="white"/>
<g clip-path="url(#clip0)">
<path d="M25.3786 15.1786H19.1857C18.9845 15.1786 18.8214 15.0155 18.8214 14.8143V8.62145C18.8214 7.61557 18.0059 6.80002 17 6.80002C15.9941 6.80002 15.1786 7.61557 15.1786 8.62145V14.8143C15.1786 15.0155 15.0154 15.1786 14.8143 15.1786H8.62142C7.61554 15.1786 6.79999 15.9941 6.79999 17C6.79999 18.0059 7.61554 18.8214 8.62142 18.8214H14.8143C15.0154 18.8214 15.1786 18.9846 15.1786 19.1857V25.3786C15.1786 26.3845 15.9941 27.2 17 27.2C18.0059 27.2 18.8214 26.3845 18.8214 25.3786V19.1857C18.8214 18.9846 18.9845 18.8214 19.1857 18.8214H25.3786C26.3844 18.8214 27.2 18.0059 27.2 17C27.2 15.9941 26.3844 15.1786 25.3786 15.1786Z" fill="black"/>
</g>
<defs>
<clipPath id="clip0">
<rect width="20.4" height="20.4" fill="white" transform="translate(6.79999 6.80002)"/>
</clipPath>
</defs>
</svg>
