<svg width="34" height="34" viewBox="0 0 34 34" fill="none" xmlns="http://www.w3.org/2000/svg">
<path d="M17.5 34C26.6127 34 34 26.6127 34 17.5C34 8.3873 26.6127 1 17.5 1C8.3873 1 1 8.3873 1 17.5C1 26.6127 8.3873 34 17.5 34Z" fill="white"/>
<g clip-path="url(#clip0)">
<path d="M20.0572 21.9831C20.9979 21.9831 21.7605 21.2205 21.7605 20.2798C21.7605 19.3391 20.9979 18.5765 20.0572 18.5765C19.1165 18.5765 18.3539 19.3391 18.3539 20.2798C18.3539 21.2205 19.1165 21.9831 20.0572 21.9831Z" fill="black"/>
<path d="M19.9182 14.3863C20.8325 14.1671 21.3961 13.2482 21.1769 12.3338C20.9577 11.4194 20.0388 10.8558 19.1244 11.075C18.21 11.2942 17.6465 12.2132 17.8657 13.1275C18.0848 14.0419 19.0038 14.6055 19.9182 14.3863Z" fill="black"/>
<path d="M12.9549 21.9082C12.9549 21.9082 13.4444 21.9044 13.5936 21.9018C14.1692 21.8917 14.75 21.3863 14.75 20.2798C14.75 18.7654 13.8446 18.6477 13.5672 18.6477H12.9491L12.9549 21.9082Z" fill="black"/>
<path d="M8 6V25.8845L17.2134 30L26.4268 25.8845V6L8 6ZM20.0572 17.1687C21.7727 17.1687 23.1684 18.5643 23.1684 20.2798C23.1684 21.9953 21.7727 23.391 20.0572 23.391C18.3417 23.391 16.9461 21.9953 16.9461 20.2798C16.9461 18.5643 18.3417 17.1687 20.0572 17.1687ZM16.4182 12.7279C16.4182 11.0125 17.8139 9.61679 19.5294 9.61679C21.2448 9.61679 22.6405 11.0125 22.6405 12.7279C22.6405 14.4434 21.2448 15.8391 19.5294 15.8391C17.8139 15.839 16.4182 14.4434 16.4182 12.7279ZM12.0679 11.0246V9.61679H16.1345V11.0246H14.7997V15.8391H13.3919V11.0246H12.0679ZM13.5672 17.2399C14.3733 17.2399 15.0741 17.5836 15.5406 18.2077C15.9444 18.7478 16.1578 19.4644 16.1578 20.2798C16.1578 22.0095 15.0897 23.2924 13.6182 23.3181C13.2404 23.3248 11.552 23.3225 11.552 23.3225L11.5387 17.2399H13.5672Z" fill="black"/>
</g>
<defs>
<clipPath id="clip0">
<rect width="24" height="24" fill="white" transform="translate(5 8)"/>
</clipPath>
</defs>
</svg>
